<?xml version="1.0" encoding="UTF-8"?>
<svg version="1.1" xmlns="http://www.w3.org/2000/svg" width="292" height="284">
<path d="M0 0 C96.36 0 192.72 0 292 0 C292 93.72 292 187.44 292 284 C195.64 284 99.28 284 0 284 C0 190.28 0 96.56 0 0 Z " fill="#FDFDFD" transform="translate(0,0)"/>
<path d="M0 0 C1.17949219 0.25652344 2.35898438 0.51304688 3.57421875 0.77734375 C29.38460224 6.95804195 50.12743381 22.93008869 68 42 C68.99773437 43.03060547 68.99773437 43.03060547 70.015625 44.08203125 C73.98993678 48.64134686 74.8931358 52.52688239 74.5078125 58.56640625 C74 61 74 61 72.0625 63.6875 C67.81980285 65.50579878 64.5086606 66.35939516 60 65 C56.06689829 61.83025444 53.29112381 57.76886986 50.33203125 53.71484375 C36.83418649 35.53603619 14.06551631 24.15185719 -7.96191406 20.38598633 C-13.42941529 19.69134478 -18.87043761 19.6718975 -24.375 19.6875 C-25.50421875 19.67138672 -26.6334375 19.65527344 -27.796875 19.63867188 C-48.80117245 19.62665569 -70.43357519 28.0379838 -85.58203125 42.78515625 C-87 44 -87 44 -89 44 C-89.33 44.99 -89.66 45.98 -90 47 C-91.15886587 48.15886587 -92.32000266 49.31554546 -93.4921875 50.4609375 C-99.05089625 56.13485265 -103.02555774 62.53453289 -106.75 69.5 C-107.12672852 70.19963867 -107.50345703 70.89927734 -107.89160156 71.62011719 C-119.14107639 93.22433649 -119.95253924 118.91554114 -113 142 C-109.31349522 152.67426182 -104.32184097 162.35525038 -97 171 C-96.16597656 171.99515625 -95.33195312 172.9903125 -94.47265625 174.015625 C-79.31538391 191.57863842 -56.77135074 204.46396734 -33.38525391 206.19335938 C-13.51737387 207.15928062 4.45286544 204.52327164 22 195 C23.03382813 194.47664062 24.06765625 193.95328125 25.1328125 193.4140625 C36.81285023 187.16234518 45.96389074 177.87878992 54 167.47265625 C59.7313338 160.38684708 59.7313338 160.38684708 63.0625 159.37109375 C67.91117743 159.53727826 70.4805969 160.37394832 74 164 C75.66170903 167.32341807 75.7302616 170.43460512 75 174 C73.073616 177.36362347 70.58987572 180.12975242 68 183 C67.26652344 183.84046875 66.53304687 184.6809375 65.77734375 185.546875 C63.55278081 188.06524814 61.28573992 190.53716671 59 193 C58.45988281 193.60585937 57.91976562 194.21171875 57.36328125 194.8359375 C49.54868298 203.22137545 39.17563087 209.8562745 29 215 C28.21367187 215.41765625 27.42734375 215.8353125 26.6171875 216.265625 C0.05463876 230.08814253 -31.60245067 231.96779648 -60.09814453 223.36669922 C-90.78989645 213.66423916 -115.02878126 191.88982014 -130.09375 163.72265625 C-134.39525921 155.4384997 -137.00736033 147.10920994 -139 138 C-139.17136475 137.29883057 -139.34272949 136.59766113 -139.51928711 135.87524414 C-141.14951967 128.71633357 -141.34636811 121.76098063 -141.3125 114.4375 C-141.30831055 113.20257813 -141.30412109 111.96765625 -141.29980469 110.6953125 C-140.9251027 80.24081082 -129.02432219 53.79051469 -108 32 C-107.34257813 31.27941406 -106.68515625 30.55882812 -106.0078125 29.81640625 C-80.04135654 2.12256803 -36.37046205 -8.52052324 0 0 Z " fill="#2752A3" transform="translate(167,35)"/>
<path d="M0 0 C-0.66 0 -1.32 0 -2 0 C-2.24999756 0.60134766 -2.49999512 1.20269531 -2.75756836 1.82226562 C-4.18571943 4.32552905 -5.49354226 5.25848203 -7.87890625 6.84375 C-14.48557843 11.81862409 -20.49163656 16.77688527 -21.89453125 25.32080078 C-23.08169226 35.81152849 -22.61677441 46.48268486 -22 57 C-20.515 57.495 -20.515 57.495 -19 58 C-19.165 59.155 -19.33 60.31 -19.5 61.5 C-20.82681429 73.67207894 -21.82529726 87.24130036 -14.9375 97.8125 C-11.55162012 103.42635272 -11.81688771 108.04397147 -11.9375 114.375 C-12.01285402 121.47460474 -11.3288225 125.79993531 -6.29321289 131.00439453 C-4.50493661 132.62633595 -2.68351976 134.1786156 -0.80859375 135.69921875 C0.11824219 136.45847656 1.04507813 137.21773437 2 138 C2 138.66 2 139.32 2 140 C6.95 140 11.9 140 17 140 C17 139.01 17 138.02 17 137 C15.81857422 137.22623047 15.81857422 137.22623047 14.61328125 137.45703125 C9.07285872 138.05369214 4.82938462 137.92103376 0.2421875 134.59765625 C-4.45174073 130.60306632 -9.00136604 126.37913347 -9.8125 120.01953125 C-9.8125 116.57878379 -9.5938849 113.38565152 -9 110 C-6.23297264 111.27847468 -4.0734439 112.6498592 -1.8125 114.6875 C1.53125933 117.6374547 5.01772249 120.33408819 8.59375 122.99609375 C11 125 11 125 12.33886719 126.75756836 C15.01613373 130.07382378 16.86225466 131.78490166 21.13671875 132.59301758 C24.85606166 132.76895309 28.52755005 132.77296441 32.25 132.6875 C34.77586449 132.65312584 37.30202697 132.63538642 39.828125 132.63671875 C40.9409082 132.61311279 42.05369141 132.58950684 43.20019531 132.56518555 C46 133 46 133 47.69433594 134.99926758 C48.12520508 135.65950928 48.55607422 136.31975098 49 137 C52.04230823 137.50010524 52.04230823 137.50010524 55 137 C57.30662599 135.11340125 57.30662599 135.11340125 57.3125 132 C57.209375 131.01 57.10625 130.02 57 129 C53.3558226 126.5705484 51.28758728 126.83820425 47 127 C46.67 128.32 46.34 129.64 46 131 C41.79238536 131.20397024 37.58604543 131.32786067 33.375 131.4375 C31.59029297 131.52547852 31.59029297 131.52547852 29.76953125 131.61523438 C21.0745004 131.78524894 21.0745004 131.78524894 17.82519531 129.41064453 C16.33576645 127.67297753 15.1100335 125.99773855 14 124 C15.14855469 124.32355469 16.29710937 124.64710938 17.48046875 124.98046875 C21.80543117 126.05624014 25.86857778 126.34725008 30.3125 126.3125 C31.42334961 126.30621582 31.42334961 126.30621582 32.55664062 126.29980469 C38.72368631 126.17367277 44.20578698 125.17282988 50 123 C50.7528125 122.73316406 51.505625 122.46632813 52.28125 122.19140625 C61.48578192 118.54524484 69.40143827 112.44879282 75.46484375 104.6640625 C78.1653309 101.73681689 80.60545402 101.06340918 84.5 100.4375 C91.28060175 100.56519495 97.72406256 105.29966111 102.80078125 109.484375 C104.8241222 112.04156161 104.89839938 114.13932113 104.8046875 117.3359375 C103.1458171 122.8279259 98.42942621 126.72555528 94.39697266 130.62792969 C93.21691874 131.78694804 92.09170546 133.00140791 90.98046875 134.2265625 C78.4467577 147.93445563 58.55455556 157.1032377 40.15429688 158.1640625 C16.48613018 159.04775261 -2.17678769 154.79916869 -21 140 C-22.06863281 139.40703125 -23.13726562 138.8140625 -24.23828125 138.203125 C-26.63909884 136.18839715 -26.98427148 135.09778731 -27.49121094 131.94604492 C-27.63665964 128.10377493 -27.64398229 124.2802047 -27.5625 120.4375 C-27.51390532 117.80925832 -27.49991212 115.18806519 -27.50390625 112.55859375 C-27.48142822 111.39642334 -27.4589502 110.23425293 -27.43579102 109.03686523 C-27.72287727 105.79516566 -27.72287727 105.79516566 -30.48681641 103.72387695 C-31.31616699 103.15499756 -32.14551758 102.58611816 -33 102 C-33.90657821 99.25522177 -33.85364694 96.92706119 -34 94 C-35.918125 93.690625 -35.918125 93.690625 -37.875 93.375 C-38.95394531 93.20097656 -38.95394531 93.20097656 -40.0546875 93.0234375 C-40.69664063 93.01570313 -41.33859375 93.00796875 -42 93 C-44.18331689 94.76136355 -44.18331689 94.76136355 -44.1953125 96.9453125 C-44.17210938 97.66460937 -44.14890625 98.38390625 -44.125 99.125 C-44.063125 101.043125 -44.063125 101.043125 -44 103 C-43.32453125 103.03738281 -42.6490625 103.07476562 -41.953125 103.11328125 C-41.06109375 103.17902344 -40.1690625 103.24476563 -39.25 103.3125 C-38.36828125 103.37050781 -37.4865625 103.42851562 -36.578125 103.48828125 C-33.53361483 104.09257039 -32.22002934 104.83814753 -30 107 C-29.54589844 109.54370117 -29.54589844 109.54370117 -29.609375 112.54296875 C-29.62871094 114.15268555 -29.62871094 114.15268555 -29.6484375 115.79492188 C-29.68195313 116.91447266 -29.71546875 118.03402344 -29.75 119.1875 C-29.76804687 120.31865234 -29.78609375 121.44980469 -29.8046875 122.61523438 C-29.85187348 125.41100376 -29.91769405 128.20507972 -30 131 C-44.94973277 116.6720932 -51.75951739 97.23449033 -52.3515625 76.87060547 C-52.49216568 62.27423818 -49.69262599 49.03104616 -43 36 C-41 34 -41 34 -38.8359375 33.8046875 C-38.02382812 33.82789063 -37.21171875 33.85109375 -36.375 33.875 C-35.55773437 33.89304688 -34.74046875 33.91109375 -33.8984375 33.9296875 C-33.27195312 33.95289063 -32.64546875 33.97609375 -32 34 C-30.45106961 47.71663915 -30.45106961 47.71663915 -34.19140625 53.23046875 C-35.99964434 55.05413988 -37.84325417 56.84350739 -39.72265625 58.59375 C-43.0162233 62.07374537 -42.83406787 64.35390028 -43 69 C-45.0625 70.6875 -45.0625 70.6875 -47 72 C-47.50014953 74.54258463 -47.50014953 74.54258463 -47 77 C-45.05032721 79.39564928 -45.05032721 79.39564928 -41.4375 79.1875 C-38.17036305 79.39287806 -38.17036305 79.39287806 -37 78 C-36.66661404 74.54187831 -36.66661404 74.54187831 -37 71 C-37.99 70.34 -38.98 69.68 -40 69 C-40.52734375 65.703125 -40.52734375 65.703125 -40 62 C-38.21994273 60.01759684 -36.57248701 58.44819451 -34.5625 56.75 C-29.88000297 52.35002316 -28.3045512 48.79904499 -27.86889648 42.37597656 C-27.78714271 38.56929424 -27.82887653 34.80451253 -28 31 C-31.63 31 -35.26 31 -39 31 C-33.83603426 20.67206851 -13.57163481 -4.07149044 0 0 Z " fill="#243D98" transform="translate(112,73)"/>
<path d="M0 0 C4.01296 0.25033588 6.17947489 1.65650444 9 4.5625 C10.66170903 7.88591807 10.7302616 10.99710512 10 14.5625 C8.073616 17.92612347 5.58987572 20.69225242 3 23.5625 C2.26652344 24.40296875 1.53304687 25.2434375 0.77734375 26.109375 C-1.44721919 28.62774814 -3.71426008 31.09966671 -6 33.5625 C-6.54011719 34.16835937 -7.08023438 34.77421875 -7.63671875 35.3984375 C-15.45131702 43.78387545 -25.82436913 50.4187745 -36 55.5625 C-36.78632813 55.98015625 -37.57265625 56.3978125 -38.3828125 56.828125 C-55.3174477 65.6405057 -72.5700333 68.76021405 -91.5 68.625 C-93.30597656 68.61823242 -93.30597656 68.61823242 -95.1484375 68.61132812 C-98.09901073 68.5996195 -101.04947859 68.58321995 -104 68.5625 C-103.67 67.9025 -103.34 67.2425 -103 66.5625 C-98.05 66.5625 -93.1 66.5625 -88 66.5625 C-89.57007813 66.12679687 -91.14015625 65.69109375 -92.7578125 65.2421875 C-113.75268982 59.33277852 -136.80658406 52.08088546 -151.4375 34.75 C-153.19553579 32.67830584 -154.94763163 30.61932769 -156.7890625 28.62109375 C-161.23753484 23.77088713 -165.23015493 18.5712768 -168 12.5625 C-167.67 11.9025 -167.34 11.2425 -167 10.5625 C-162.22529221 11.81221015 -159.99582146 13.21983764 -156.9375 17.0625 C-147.45891968 28.0260579 -136.06542939 34.67890242 -123 40.5625 C-121.82179687 41.09617188 -120.64359375 41.62984375 -119.4296875 42.1796875 C-99.67352121 50.14515773 -73.45295348 48.8469114 -53.84375 40.984375 C-50.11926032 39.36531469 -46.56884668 37.49940293 -43 35.5625 C-41.44925781 34.77746094 -41.44925781 34.77746094 -39.8671875 33.9765625 C-28.18714977 27.72484518 -19.03610926 18.44128992 -11 8.03515625 C-4.37938216 -0.15009979 -4.37938216 -0.15009979 0 0 Z " fill="#7C1AA2" transform="translate(232,194.4375)"/>
<path d="M0 0 C2.60008708 2.20449565 5.11392852 4.48230466 7.6159668 6.7980957 C8.3481543 7.47227539 9.0803418 8.14645508 9.8347168 8.84106445 C14.27215827 13.09988011 18.27575443 17.02779499 19.0534668 23.3605957 C18.57576164 27.11399339 17.8469541 28.78026557 15.6159668 31.7980957 C13.0222168 33.3449707 13.0222168 33.3449707 10.1159668 34.5480957 C9.1569043 34.95543945 8.1978418 35.3627832 7.2097168 35.7824707 C2.73413182 37.5349588 -0.54989502 38.20776843 -5.3840332 37.7980957 C-9.34624538 35.81698962 -11.81594081 33.356451 -14.5715332 29.9855957 C-18.74052178 25.01986709 -23.80857381 21.9999292 -29.3840332 18.7980957 C-30.3327832 18.2205957 -31.2815332 17.6430957 -32.2590332 17.0480957 C-44.65602533 12.08929885 -56.54364602 11.67852224 -69.3840332 14.7980957 C-68.23229965 12.33009523 -67.33619755 10.75026005 -65.3840332 8.7980957 C-62.47844327 8.57355826 -59.67099919 8.46992488 -56.76293945 8.4621582 C-55.90723862 8.4555014 -55.05153778 8.4488446 -54.16990662 8.44198608 C-52.35841017 8.43185198 -50.54687633 8.4271693 -48.73535156 8.42749023 C-45.96071991 8.42311806 -43.18767995 8.38681089 -40.41333008 8.34887695 C-38.65487199 8.34300878 -36.89640633 8.33903939 -35.13793945 8.3371582 C-34.30662003 8.32278717 -33.4753006 8.30841614 -32.61878967 8.29360962 C-30.27294922 8.31225586 -30.27294922 8.31225586 -26.3840332 8.7980957 C-24.52832031 10.8034668 -24.52832031 10.8034668 -23.3840332 12.7980957 C-20.34172497 13.29820094 -20.34172497 13.29820094 -17.3840332 12.7980957 C-15.06840234 10.913093 -15.06840234 10.913093 -15.1340332 7.7980957 C-15.06840234 4.68309841 -15.06840234 4.68309841 -17.3840332 2.7980957 C-20.3419189 2.38134051 -20.3419189 2.38134051 -23.3840332 2.7980957 C-23.86336807 3.29455093 -24.34270294 3.79100616 -24.83656311 4.30250549 C-26.3840332 5.7980957 -26.3840332 5.7980957 -30.20605469 6.04003906 C-31.80605443 6.00026722 -33.40578916 5.94876385 -35.00512695 5.88793945 C-36.76355907 5.86632987 -38.52202772 5.84754384 -40.28051758 5.83129883 C-43.0405293 5.79248731 -45.79542285 5.73660129 -48.55371094 5.63037109 C-60.03524066 4.92174433 -60.03524066 4.92174433 -70.171875 9.41992188 C-72.30331132 11.43751814 -74.17264505 13.58112064 -75.99975586 15.87475586 C-78.79748311 19.30502271 -81.74753753 21.27465994 -85.4777832 23.55200195 C-87.35069319 24.77630172 -88.78214196 26.05762989 -90.3215332 27.6730957 C-91.0021582 28.3743457 -91.6827832 29.0755957 -92.3840332 29.7980957 C-93.0440332 29.7980957 -93.7040332 29.7980957 -94.3840332 29.7980957 C-95.36031222 23.18109345 -96.15221732 16.85406969 -92.2043457 11.13012695 C-88.25353068 6.3990397 -84.61522517 3.21894928 -78.4699707 2.05981445 C-75.01980489 2.04927423 -71.78793636 2.25427686 -68.3840332 2.7980957 C-68.3840332 1.8080957 -68.3840332 0.8180957 -68.3840332 -0.2019043 C-76.22016392 -0.86304396 -82.71030668 -0.5785425 -89.03955078 4.40209961 C-94.86989453 9.77134703 -96.98844305 14.24176974 -97.37866211 22.18798828 C-97.38218027 24.1023454 -97.34178313 26.01740165 -97.25268555 27.9296875 C-96.96605495 34.52867865 -97.97635228 38.71390802 -102.3840332 43.7980957 C-102.7140332 43.7980957 -103.0440332 43.7980957 -103.3840332 43.7980957 C-106.41958382 12.74757204 -106.41958382 12.74757204 -99.48364258 2.39257812 C-93.56295348 -4.28634018 -87.34628055 -6.40985981 -78.62425232 -7.14292908 C-69.88040443 -7.64340149 -61.13276156 -7.51414373 -52.38793945 -7.0925293 C-51.51148773 -7.05383224 -50.63503601 -7.01513519 -49.73202515 -6.9752655 C-47.28857422 -6.81225586 -47.28857422 -6.81225586 -43.3840332 -6.2019043 C-42.7240332 -5.2119043 -42.0640332 -4.2219043 -41.3840332 -3.2019043 C-37.8421549 -2.86851834 -37.8421549 -2.86851834 -34.3840332 -3.2019043 C-32.99494681 -4.37300614 -32.99494681 -4.37300614 -33.1340332 -7.6394043 C-33.2165332 -8.8150293 -33.2990332 -9.9906543 -33.3840332 -11.2019043 C-36.14298955 -13.49828209 -36.14298955 -13.49828209 -38.9465332 -12.9519043 C-41.53403887 -12.36382377 -41.53403887 -12.36382377 -43.3840332 -10.2019043 C-46.46928259 -10.0263701 -49.46367522 -9.97067633 -52.5480957 -10.0065918 C-53.90890762 -10.01083664 -53.90890762 -10.01083664 -55.29721069 -10.01516724 C-58.20128443 -10.02638277 -61.10505232 -10.05148967 -64.0090332 -10.0769043 C-65.97517459 -10.08693233 -67.9413208 -10.09605849 -69.9074707 -10.10424805 C-74.73310979 -10.12632658 -79.5585196 -10.16086565 -84.3840332 -10.2019043 C-82.61938477 -14.07543945 -82.61938477 -14.07543945 -80.5012207 -15.21362305 C-79.76129883 -15.43663086 -79.02137695 -15.65963867 -78.2590332 -15.8894043 C-77.53458008 -16.12014648 -76.81012695 -16.35088867 -76.0637207 -16.58862305 C-48.74699329 -22.84041052 -21.66111358 -17.69066946 0 0 Z " fill="#12A8AF" transform="translate(197.384033203125,83.201904296875)"/>
<path d="M0 0 C31.01770767 2.17668124 56.41467027 21.03558772 77 43 C77.99773437 44.03060547 77.99773437 44.03060547 79.015625 45.08203125 C82.98993678 49.64134686 83.8931358 53.52688239 83.5078125 59.56640625 C83 62 83 62 81.0625 64.6875 C76.81980285 66.50579878 73.5086606 67.35939516 69 66 C65.06689829 62.83025444 62.29112381 58.76886986 59.33203125 54.71484375 C45.83418649 36.53603619 23.06551631 25.15185719 1.03808594 21.38598633 C-4.42941529 20.69134478 -9.87043761 20.6718975 -15.375 20.6875 C-16.50421875 20.67138672 -17.6334375 20.65527344 -18.796875 20.63867188 C-39.80117245 20.62665569 -61.43357519 29.0379838 -76.58203125 43.78515625 C-78 45 -78 45 -80 45 C-80.33 45.99 -80.66 46.98 -81 48 C-81.7425 47.896875 -82.485 47.79375 -83.25 47.6875 C-86.23080299 47.70794975 -86.23080299 47.70794975 -88.0625 50.4375 C-89.0215625 51.7059375 -89.0215625 51.7059375 -90 53 C-92.25 53.8125 -92.25 53.8125 -94 54 C-92.62267001 49.89715986 -90.76356341 47.33157616 -87.8125 44.1875 C-87.01199219 43.32382813 -86.21148437 42.46015625 -85.38671875 41.5703125 C-84.59910156 40.72210938 -83.81148437 39.87390625 -83 39 C-81.15730987 36.90715499 -79.33118728 34.80105968 -77.5078125 32.69140625 C-61.03213517 14.20962313 -33.91288742 4.86367229 -10 2 C-6.61520294 1.8188872 -3.38961557 1.83858973 0 2 C0 1.34 0 0.68 0 0 Z " fill="#0EB2A8" transform="translate(158,34)"/>
<path d="M0 0 C1.8125 1.125 1.8125 1.125 3 3 C3.1875 6.1875 3.1875 6.1875 3 9 C1.02 9.99 1.02 9.99 -1 11 C-1.02118028 13.8593384 -0.99319067 16.70445501 -0.9375 19.5625 C-0.94845703 20.36236328 -0.95941406 21.16222656 -0.97070312 21.98632812 C-0.91136315 26.7690207 -0.91136315 26.7690207 1.61401367 30.61572266 C2.25185791 31.11765137 2.88970215 31.61958008 3.546875 32.13671875 C6.28059277 34.53850744 6.94242789 35.60315838 7.47436523 39.26977539 C7.4796603 42.57368302 7.41510281 45.85222435 7.26895142 49.15170288 C6.46900118 60.86749715 6.46900118 60.86749715 10.5703125 71.33984375 C13.37208366 74.11003713 16.58676005 76.04510372 20 78 C20.52392334 78.68263916 21.04784668 79.36527832 21.58764648 80.06860352 C25.30663654 83.04612911 28.94326009 82.60303399 33.578125 82.609375 C34.5046991 82.62591125 35.43127319 82.64244751 36.38592529 82.65948486 C39.340684 82.70800726 42.29492789 82.72934524 45.25 82.75 C47.25523429 82.77815613 49.26044456 82.80808305 51.265625 82.83984375 C56.17704096 82.91376745 61.08817041 82.96331624 66 83 C66.495 81.02 66.495 81.02 67 79 C71.455 78.505 71.455 78.505 76 78 C75.67 77.34 75.34 76.68 75 76 C75.969375 75.690625 76.93875 75.38125 77.9375 75.0625 C80.84065792 74.30476658 80.84065792 74.30476658 82 73 C82.33340471 70.04195427 82.33340471 70.04195427 82 67 C78.3558226 64.5705484 76.28758728 64.83820425 72 65 C71.505 66.98 71.505 66.98 71 69 C66.79238536 69.20397024 62.58604543 69.32786067 58.375 69.4375 C56.59029297 69.52547852 56.59029297 69.52547852 54.76953125 69.61523438 C46.0745004 69.78524894 46.0745004 69.78524894 42.82519531 67.41064453 C41.33576645 65.67297753 40.1100335 63.99773855 39 62 C40.14855469 62.32355469 41.29710937 62.64710938 42.48046875 62.98046875 C46.80543117 64.05624014 50.86857778 64.34725008 55.3125 64.3125 C56.42334961 64.30621582 56.42334961 64.30621582 57.55664062 64.29980469 C63.72368631 64.17367277 69.20578698 63.17282988 75 61 C75.7528125 60.73316406 76.505625 60.46632812 77.28125 60.19140625 C86.48578192 56.54524484 94.40143827 50.44879282 100.46484375 42.6640625 C103.1653309 39.73681689 105.60545402 39.06340918 109.5 38.4375 C116.28060175 38.56519495 122.72406256 43.29966111 127.80078125 47.484375 C129.8241222 50.04156161 129.89839938 52.13932113 129.8046875 55.3359375 C128.1458171 60.8279259 123.42942621 64.72555528 119.39697266 68.62792969 C118.21691874 69.78694804 117.09170546 71.00140791 115.98046875 72.2265625 C103.4467577 85.93445563 83.55455556 95.1032377 65.15429688 96.1640625 C40.37331921 97.08930124 40.37331921 97.08930124 30 93 C29.01 92.01 29.01 92.01 28 91 C28.66 91 29.32 91 30 91 C30 90.34 30 89.68 30 89 C35.28 89 40.56 89 46 89 C46 88.34 46 87.68 46 87 C45.36610352 87.06807861 44.73220703 87.13615723 44.07910156 87.20629883 C26.39067269 88.85595524 26.39067269 88.85595524 20.84570312 85.82080078 C17.36599681 82.91065552 14.8129094 79.42288781 12.33007812 75.65356445 C10.81903935 73.77502818 9.24109249 72.82973094 7.21875 71.53515625 C4.51889431 69.32618341 4.04042762 68.24461637 3.4609375 64.73828125 C3.3158081 59.95868643 3.41121321 55.22028653 3.57080078 50.44311523 C4.15854287 42.20849931 4.15854287 42.20849931 1.43432617 34.79125977 C0.18042322 33.6892582 -1.10222207 32.61889141 -2.41455078 31.5871582 C-4.93462184 29.06437072 -4.75531227 26.61503918 -4.77539062 23.18164062 C-4.74638672 22.39982422 -4.71738281 21.61800781 -4.6875 20.8125 C-4.30482823 14.74659787 -4.30482823 14.74659787 -7.0234375 9.64453125 C-7.67570312 9.10183594 -8.32796875 8.55914062 -9 8 C-8.9375 4.875 -8.9375 4.875 -8 2 C-4.76746204 -0.15502531 -3.74849077 -0.46856135 0 0 Z " fill="#9B21BD" transform="translate(87,135)"/>
<path d="M0 0 C4.875 4.75 4.875 4.75 6 7 C5.99927589 8.44477086 5.94387713 9.88973352 5.859375 11.33203125 C5.30049998 22.48233375 5.30049998 22.48233375 9.95703125 32.2109375 C12.23175345 34.55347241 14.65776663 36.64265211 17.19140625 38.69921875 C18.11824219 39.45847656 19.04507813 40.21773437 20 41 C20 41.66 20 42.32 20 43 C24.95 43 29.9 43 35 43 C35 42.01 35 41.02 35 40 C34.21238281 40.15082031 33.42476562 40.30164063 32.61328125 40.45703125 C27.07285872 41.05369214 22.82938462 40.92103376 18.2421875 37.59765625 C13.54825927 33.60306632 8.99863396 29.37913347 8.1875 23.01953125 C8.1875 19.57878379 8.4061151 16.38565152 9 13 C11.76702736 14.27847468 13.9265561 15.6498592 16.1875 17.6875 C19.53125933 20.6374547 23.01772249 23.33408819 26.59375 25.99609375 C29 28 29 28 30.34106445 29.75976562 C33.0133317 33.06912692 34.84996561 34.78739389 39.12060547 35.5769043 C42.82436296 35.73316055 46.48180737 35.72366668 50.1875 35.625 C52.70146845 35.57398085 55.21598828 35.54438134 57.73046875 35.5390625 C58.83801514 35.51021973 59.94556152 35.48137695 61.08666992 35.45166016 C64.96938268 36.18245483 65.75294124 37.86043583 68 41 C69.32 41.66 70.64 42.32 72 43 C66.06 43.99 66.06 43.99 60 45 C59.67 45.99 59.34 46.98 59 48 C53.23873468 48.29934632 47.48209706 48.51557278 41.71484375 48.65917969 C39.75896288 48.71909303 37.80360957 48.80066535 35.84960938 48.90527344 C18.71836671 49.79862045 18.71836671 49.79862045 13.13867188 45.41601562 C11.00533597 43.41574541 9.15227959 41.2878748 7.34863281 38.98925781 C5.17262823 35.91776972 5.17262823 35.91776972 2.22094727 34.07421875 C0 32 0 32 -0.56762695 28.60839844 C-0.54144287 27.2887207 -0.51525879 25.96904297 -0.48828125 24.609375 C-0.48120651 23.90476135 -0.47413177 23.20014771 -0.46684265 22.47418213 C-0.43893357 20.23169109 -0.37621287 17.99173129 -0.3125 15.75 C-0.28741211 14.22659866 -0.26459978 12.70315803 -0.24414062 11.1796875 C-0.18912213 7.45230751 -0.10287804 3.72640094 0 0 Z " fill="#6928AB" transform="translate(94,170)"/>
<path d="M0 0 C-0.66 0 -1.32 0 -2 0 C-2.24999756 0.60134766 -2.49999512 1.20269531 -2.75756836 1.82226562 C-4.18571943 4.32552905 -5.49354226 5.25848203 -7.87890625 6.84375 C-14.48557843 11.81862409 -20.49163656 16.77688527 -21.89453125 25.32080078 C-23.08169226 35.81152849 -22.61677441 46.48268486 -22 57 C-20.515 57.495 -20.515 57.495 -19 58 C-19.165 59.155 -19.33 60.31 -19.5 61.5 C-20.81642132 73.57673474 -21.243303 86.76435071 -16 98 C-19.96013625 97.24118437 -22.02217057 95.77328478 -24.76513672 92.88085938 C-27.05924342 89.3866328 -26.74872628 85.80123827 -26.5625 81.75 C-26.56056641 80.9353125 -26.55863281 80.120625 -26.55664062 79.28125 C-26.50390625 76.921875 -26.50390625 76.921875 -26 73 C-24.515 72.01 -24.515 72.01 -23 71 C-22.58333333 68 -22.58333333 68 -23 65 C-23.66 64.34 -24.32 63.68 -25 63 C-28.59679066 63.32326553 -28.59679066 63.32326553 -32 64 C-32.2475 64.804375 -32.495 65.60875 -32.75 66.4375 C-34 69 -34 69 -36 69.875 C-38 70 -38 70 -40 69 C-40.33984375 65.828125 -40.33984375 65.828125 -40 62 C-38.21994273 60.01759684 -36.57248701 58.44819451 -34.5625 56.75 C-29.88000297 52.35002316 -28.3045512 48.79904499 -27.86889648 42.37597656 C-27.78714271 38.56929424 -27.82887653 34.80451253 -28 31 C-31.63 31 -35.26 31 -39 31 C-33.83603426 20.67206851 -13.57163481 -4.07149044 0 0 Z " fill="#1962A1" transform="translate(112,73)"/>
<path d="M0 0 C1.8125 1.125 1.8125 1.125 3 3 C3.1875 6.1875 3.1875 6.1875 3 9 C1.02 9.99 1.02 9.99 -1 11 C-1.02118028 13.8593384 -0.99319067 16.70445501 -0.9375 19.5625 C-0.94845703 20.36236328 -0.95941406 21.16222656 -0.97070312 21.98632812 C-0.91136315 26.7690207 -0.91136315 26.7690207 1.61401367 30.61572266 C2.25185791 31.11765137 2.88970215 31.61958008 3.546875 32.13671875 C6.28059277 34.53850744 6.94242789 35.60315838 7.47436523 39.26977539 C7.47966018 42.57361254 7.41487556 45.85202692 7.26867676 49.15142822 C6.46866341 60.84502693 6.46866341 60.84502693 10.53515625 71.3046875 C13.34569143 74.08326986 16.59770659 76.00525437 20 78 C20.68892334 78.84763916 21.37784668 79.69527832 22.08764648 80.56860352 C26.2036149 84.0048454 29.46573894 83.72997832 34.67578125 83.70703125 C36.06351997 83.72971321 36.06351997 83.72971321 37.47929382 83.75285339 C40.42394402 83.79571967 43.36756891 83.80456736 46.3125 83.8125 C48.31317828 83.83564513 50.31383219 83.8610105 52.31445312 83.88867188 C57.20972601 83.95151378 62.10435937 83.98385739 67 84 C67.99 82.02 67.99 82.02 69 80 C70.98 80 72.96 80 75 80 C72 82 72 82 70 83 C70.33 84.65 70.66 86.3 71 88 C72.485 88.495 72.485 88.495 74 89 C74 89.66 74 90.32 74 91 C72.35 91 70.7 91 69 91 C68.34 89.68 67.68 88.36 67 87 C65.72995117 87.06807861 64.45990234 87.13615723 63.15136719 87.20629883 C58.38893181 87.44357775 53.62700276 87.59151227 48.86035156 87.71411133 C46.80737177 87.77905253 44.7549831 87.86745084 42.70410156 87.98071289 C24.71512916 88.94847406 24.71512916 88.94847406 19.14648438 84.25927734 C16.97662599 82.05785988 15.13718287 79.71157227 13.33496094 77.20410156 C11.21115471 74.28975266 9.78184689 72.97174385 6.78125 71.15234375 C4.246731 69.09573193 4.01110532 68.07026657 3.48828125 64.76220703 C3.31001046 59.97238397 3.41085185 55.23110365 3.57080078 50.44311523 C4.15854287 42.20849931 4.15854287 42.20849931 1.43432617 34.79125977 C0.18042322 33.6892582 -1.10222207 32.61889141 -2.41455078 31.5871582 C-4.93462184 29.06437072 -4.75531227 26.61503918 -4.77539062 23.18164062 C-4.74638672 22.39982422 -4.71738281 21.61800781 -4.6875 20.8125 C-4.30482823 14.74659787 -4.30482823 14.74659787 -7.0234375 9.64453125 C-7.67570312 9.10183594 -8.32796875 8.55914062 -9 8 C-8.9375 4.875 -8.9375 4.875 -8 2 C-4.76746204 -0.15502531 -3.74849077 -0.46856135 0 0 Z " fill="#DBD3EA" transform="translate(87,135)"/>
<path d="M0 0 C3.64734979 0.22330713 5.38372835 0.38372835 8 3 C8.25 6.5 8.25 6.5 8 10 C6 12 6 12 2.375 12.125 C1.26125 12.08375 0.1475 12.0425 -1 12 C-1.99 10.02 -1.99 10.02 -3 8 C-29.92074148 5.52327684 -29.92074148 5.52327684 -54.75 13.01953125 C-61.68223947 19.65826865 -62.63685993 27.04964956 -62.98478699 36.23410034 C-63.13578809 44.18198831 -62.67922212 52.08444996 -62 60 C-62.66 60 -63.32 60 -64 60 C-64.33 48.78 -64.66 37.56 -65 26 C-65.33 37.55 -65.66 49.1 -66 61 C-66.33 61 -66.66 61 -67 61 C-70.30970027 28.03431336 -70.30970027 28.03431336 -62.8046875 18.51953125 C-58.85669787 14.41741476 -54.5414548 10.8605092 -49.85766602 7.62695312 C-47.75785018 5.78792398 -47.35541507 4.72472537 -47 2 C-45.68 1.67 -44.36 1.34 -43 1 C-43.33 1.99 -43.66 2.98 -44 4 C-38.21547288 3.93121349 -32.4316749 3.84329133 -26.64770508 3.73754883 C-24.67968829 3.70427514 -22.71157551 3.67625085 -20.7434082 3.65356445 C-17.91576188 3.62006322 -15.08899718 3.56775037 -12.26171875 3.51171875 C-11.38037766 3.50532883 -10.49903656 3.4989389 -9.59098816 3.49235535 C-8.77036392 3.47256119 -7.94973969 3.45276703 -7.10424805 3.43237305 C-6.38254929 3.42126999 -5.66085052 3.41016693 -4.9172821 3.39872742 C-2.4854824 2.89299839 -1.70790279 1.73928677 0 0 Z " fill="#B1D6E2" transform="translate(157,69)"/>
<path d="M0 0 C-0.81791016 0.91265625 -0.81791016 0.91265625 -1.65234375 1.84375 C-19.06091761 22.07935723 -26.66856405 45.49107939 -26.1875 71.9375 C-26.17239513 73.4107933 -26.15871719 74.88410193 -26.14648438 76.35742188 C-26.11400863 79.9052762 -26.06256273 83.45253307 -26 87 C-26.66 87 -27.32 87 -28 87 C-30.0640404 78.85962315 -30.33416072 70.99470291 -30.3125 62.625 C-30.32861328 61.3875 -30.34472656 60.15 -30.36132812 58.875 C-30.36557722 50.80172681 -29.35014412 43.71524275 -27 36 C-26.79592529 35.29182129 -26.59185059 34.58364258 -26.3815918 33.85400391 C-23.79566053 25.10737175 -20.28656821 17.04609934 -16 9 C-15.48695312 7.91847656 -14.97390625 6.83695312 -14.4453125 5.72265625 C-13 3 -13 3 -11 2 C-11.33 3.32 -11.66 4.64 -12 6 C-9.96166576 4.7260411 -7.96147874 3.38938077 -6 2 C-6 1.34 -6 0.68 -6 0 C-3.50907189 -1.24546405 -2.58919267 -0.7767578 0 0 Z " fill="#124882" transform="translate(76,82)"/>
<path d="M0 0 C3.458176 -0.0868329 6.91607344 -0.14033282 10.375 -0.1875 C11.35984375 -0.21263672 12.3446875 -0.23777344 13.359375 -0.26367188 C14.77089844 -0.27817383 14.77089844 -0.27817383 16.2109375 -0.29296875 C17.08024902 -0.3086792 17.94956055 -0.32438965 18.84521484 -0.34057617 C19.55629395 -0.22818604 20.26737305 -0.1157959 21 0 C21.66 0.99 22.32 1.98 23 3 C27.34586828 3.39507893 29.32003497 3.45331002 33 1 C33 1.99 33 2.98 33 4 C35.97 3.34 38.94 2.68 42 2 C41 4 41 4 38.26953125 5.03515625 C37.12871094 5.37417969 35.98789063 5.71320313 34.8125 6.0625 C33.68457031 6.40410156 32.55664062 6.74570313 31.39453125 7.09765625 C17.23710541 10.86102261 -2.17295949 11.4508044 -16 6 C-16.66 5.34 -17.32 4.68 -18 4 C-17.34 4 -16.68 4 -16 4 C-16 3.34 -16 2.68 -16 2 C-10.72 2 -5.44 2 0 2 C0 1.34 0 0.68 0 0 Z " fill="#6F23A8" transform="translate(133,222)"/>
<path d="M0 0 C4.875 4.75 4.875 4.75 6 7 C5.99927589 8.44477086 5.94387713 9.88973352 5.859375 11.33203125 C5.27019287 22.42719311 5.27019287 22.42719311 9.921875 32.0703125 C12.17766002 34.34091332 14.58986538 36.32060411 17.09375 38.30859375 C20 41 20 41 21 47 C26.28 47 31.56 47 37 47 C37 47.33 37 47.66 37 48 C18.79190132 49.94315678 18.79190132 49.94315678 13.17578125 45.46875 C11.07504843 43.4510899 9.22716197 41.2893039 7.41015625 39.015625 C5.21074126 35.94549768 5.21074126 35.94549768 2.37988281 34.2734375 C0 32 0 32 -0.56762695 28.60839844 C-0.54144287 27.2887207 -0.51525879 25.96904297 -0.48828125 24.609375 C-0.48120651 23.90476135 -0.47413177 23.20014771 -0.46684265 22.47418213 C-0.43893357 20.23169109 -0.37621287 17.99173129 -0.3125 15.75 C-0.28741211 14.22659866 -0.26459978 12.70315803 -0.24414062 11.1796875 C-0.18912213 7.45230751 -0.10287804 3.72640094 0 0 Z " fill="#41269C" transform="translate(94,170)"/>
<path d="M0 0 C0.66 0 1.32 0 2 0 C1.96221436 0.87624023 1.92442871 1.75248047 1.88549805 2.65527344 C0.45079225 19.93561657 0.45079225 19.93561657 5.78515625 35.51953125 C7.917948 37.61259301 10.19220252 39.26854367 12.703125 40.87890625 C16 43 16 43 18.18359375 46.22265625 C22.52278558 50.50166511 26.94292602 49.88934227 32.8125 49.875 C33.88693359 49.895625 34.96136719 49.91625 36.06835938 49.9375 C38.71301554 49.98451611 41.3550121 50.0044491 44 50 C44 50.66 44 51.32 44 52 C38.72 52 33.44 52 28 52 C28 52.66 28 53.32 28 54 C17.55119053 53.53560847 8.65433913 46.63881295 1 40 C0.30737061 39.43909668 -0.38525879 38.87819336 -1.09887695 38.30029297 C-3.63424581 35.23258456 -3.46228369 33.42560294 -3.390625 29.484375 C-3.37773438 28.23398438 -3.36484375 26.98359375 -3.3515625 25.6953125 C-3.31804687 24.39335937 -3.28453125 23.09140625 -3.25 21.75 C-3.23195313 20.43257812 -3.21390625 19.11515625 -3.1953125 17.7578125 C-3.14816271 14.50447692 -3.08236044 11.25260375 -3 8 C-2.67 8 -2.34 8 -2 8 C-1.67 15.26 -1.34 22.52 -1 30 C-0.67 20.1 -0.34 10.2 0 0 Z " fill="#3A2797" transform="translate(89,172)"/>
<path d="M0 0 C2.6015625 -0.29296875 2.6015625 -0.29296875 5.625 -0.1875 C7.12933594 -0.14689453 7.12933594 -0.14689453 8.6640625 -0.10546875 C9.43492188 -0.07066406 10.20578125 -0.03585938 11 0 C12.79366042 17.32059962 12.79366042 17.32059962 8.5859375 22.6875 C7.13055508 24.26869198 5.63584444 25.68749041 4.00073242 27.08105469 C0.9670314 29.6718977 0.03600995 30.8373744 -0.84765625 34.828125 C-0.92306641 36.39820313 -0.92306641 36.39820313 -1 38 C0.32 38.66 1.64 39.32 3 40 C3.125 43.375 3.125 43.375 3 47 C1 49 1 49 -2.4375 49.3125 C-6 49 -6 49 -7.9375 47.8125 C-9.38718434 45.33950907 -9.42317323 43.82115488 -9 41 C-7.625 39.1875 -7.625 39.1875 -6 38 C-5.34 38 -4.68 38 -4 38 C-4.20625 36.906875 -4.4125 35.81375 -4.625 34.6875 C-4.67927602 31.23192692 -4.17270017 30.19055509 -1.80859375 27.58203125 C-0.90238281 26.72996094 0.00382812 25.87789062 0.9375 25 C6.39459731 19.54290269 7.06050651 15.50451658 7.15209961 8.13085938 C7.13574363 6.41989978 7.0729265 4.70948295 7 3 C4.03 3 1.06 3 -2 3 C-1.34 2.01 -0.68 1.02 0 0 Z " fill="#E1E7F1" transform="translate(73,104)"/>
<path d="M0 0 C0.39316406 0.474375 0.78632812 0.94875 1.19140625 1.4375 C3.44662893 3.38585652 5.01017689 3.57740899 7.9375 4 C11.80531074 4.56004499 14.15582921 5.25089485 17 8 C17.45410156 10.54370117 17.45410156 10.54370117 17.390625 13.54296875 C17.37128906 15.15268555 17.37128906 15.15268555 17.3515625 16.79492188 C17.31804687 17.91447266 17.28453125 19.03402344 17.25 20.1875 C17.23195313 21.31865234 17.21390625 22.44980469 17.1953125 23.61523438 C17.14812652 26.41100376 17.08230595 29.20507972 17 32 C9.1906682 24.55736725 0.53385514 13.60743568 -0.25 2.4375 C-0.1675 1.633125 -0.085 0.82875 0 0 Z " fill="#292291" transform="translate(65,172)"/>
<path d="M0 0 C1.8125 1.125 1.8125 1.125 3 3 C3.1875 6.1875 3.1875 6.1875 3 9 C1.02 9.99 1.02 9.99 -1 11 C-0.99396429 13.8790338 -0.94638109 16.74744998 -0.875 19.625 C-0.87757812 20.43324219 -0.88015625 21.24148437 -0.8828125 22.07421875 C-0.80342936 24.51525018 -0.65337807 26.64338533 0 29 C1.0003125 29.845625 2.000625 30.69125 3.03125 31.5625 C5.67043035 33.82701591 5.98919879 34.92402686 6.49169922 38.45849609 C6.66645373 42.76795148 6.52362278 47.06680886 6.375 51.375 C6.34487655 52.88927017 6.3175049 54.40359774 6.29296875 55.91796875 C6.22712763 59.61317898 6.1237393 63.30622321 6 67 C5.01 67.495 5.01 67.495 4 68 C4.00636475 67.09757568 4.01272949 66.19515137 4.01928711 65.26538086 C4.02644456 61.88901799 4.00221715 58.51581197 3.95727539 55.13989258 C3.94420485 53.68422195 3.94333798 52.22838506 3.95532227 50.77270508 C4.31474687 42.341413 4.31474687 42.341413 1.40356445 34.76489258 C0.15475706 33.66732099 -1.12262924 32.60117651 -2.42993164 31.57397461 C-4.93666529 29.06100433 -4.75540703 26.59883495 -4.77539062 23.18164062 C-4.74638672 22.39982422 -4.71738281 21.61800781 -4.6875 20.8125 C-4.30482823 14.74659787 -4.30482823 14.74659787 -7.0234375 9.64453125 C-7.67570312 9.10183594 -8.32796875 8.55914062 -9 8 C-8.9375 4.875 -8.9375 4.875 -8 2 C-4.76746204 -0.15502531 -3.74849077 -0.46856135 0 0 Z " fill="#ECEEF5" transform="translate(87,135)"/>
<path d="M0 0 C2.625 0.375 2.625 0.375 5 1 C3.62080153 4.21451323 2.10710238 5.87765608 -0.5859375 8.06640625 C-3.64847328 11.04250588 -4.50150231 12.95171381 -4.7265625 17.21484375 C-4.7265625 19.12269622 -4.69194614 21.03082245 -4.625 22.9375 C-4.41714097 30.60230188 -4.80909362 36.00345979 -10 42 C-10.33 42 -10.66 42 -11 42 C-11.09901748 37.37359847 -11.17153649 32.74781613 -11.21972656 28.12060547 C-11.2398188 26.54725396 -11.26709799 24.97397692 -11.30175781 23.40087891 C-11.35038494 21.13685728 -11.37299135 18.87382427 -11.390625 16.609375 C-11.41127014 15.90818542 -11.43191528 15.20699585 -11.45318604 14.48455811 C-11.45473874 11.09065352 -11.26145337 9.33364469 -9.13964844 6.62597656 C-6.8512156 4.88693472 -4.48602133 3.43927551 -2 2 C-1.34 1.34 -0.68 0.68 0 0 Z " fill="#136C9F" transform="translate(105,85)"/>
<path d="M0 0 C3.17525628 2.2680402 3.93656312 3.77400611 5 7.5625 C5.61137777 11.06478177 5.61137777 11.06478177 8.03808594 12.3137207 C10 14 10 14 10.45410156 16.91088867 C10.42268066 18.64689331 10.42268066 18.64689331 10.390625 20.41796875 C10.37128906 22.29838867 10.37128906 22.29838867 10.3515625 24.21679688 C10.31804687 25.52712891 10.28453125 26.83746094 10.25 28.1875 C10.22993307 29.5227601 10.21168262 30.85804883 10.1953125 32.19335938 C10.14809803 35.46296146 10.08225184 38.73112192 10 42 C7.72008288 40.22497802 7.04952877 39.3699213 6.65942383 36.45629883 C6.67513428 35.46654053 6.69084473 34.47678223 6.70703125 33.45703125 C6.71669922 32.38388672 6.72636719 31.31074219 6.73632812 30.20507812 C6.76146484 29.08552734 6.78660156 27.96597656 6.8125 26.8125 C6.82603516 25.68134766 6.83957031 24.55019531 6.85351562 23.38476562 C6.88890042 20.58936683 6.93827052 17.79492108 7 15 C3.08740352 12.94953172 -0.51557265 12.27416671 -4.85546875 11.5625 C-5.56316406 11.376875 -6.27085938 11.19125 -7 11 C-8.39935013 8.20129973 -8.25265405 6.09501208 -8 3 C-5.90969097 -0.30048795 -3.75401597 -0.64092956 0 0 Z " fill="#DCDDED" transform="translate(75,165)"/>
<path d="M0 0 C3.15465158 3.64071573 4.60001632 7.6962463 6.3125 12.125 C9.62829896 20.443692 13.54899272 27.86559342 19 35 C18.67 35.66 18.34 36.32 18 37 C17.01 36.34 16.02 35.68 15 35 C14.67 35.99 14.34 36.98 14 38 C5.85731344 30.9923546 1.61849358 16.12403738 -1 6 C-1.19140625 3.12890625 -1.19140625 3.12890625 -1 1 C-0.67 0.67 -0.34 0.34 0 0 Z " fill="#2C2F86" transform="translate(50,170)"/>
<path d="M0 0 C0 0.99 0 1.98 0 3 C-0.88300781 2.94457031 -1.76601562 2.88914062 -2.67578125 2.83203125 C-10.02675833 2.79255232 -14.7198687 3.65786036 -20.3125 8.625 C-24.48643292 12.94716742 -25.7102152 16.88615843 -26.0625 22.875 C-26.03285156 24.10992187 -26.00320312 25.34484375 -25.97265625 26.6171875 C-25.9998351 29.97959923 -26.53865073 32.00906725 -28 35 C-28.33 35 -28.66 35 -29 35 C-31.37269983 16.78496593 -31.37269983 16.78496593 -26.41015625 9.48828125 C-18.77507924 0.39719191 -11.61390754 -2.04951309 0 0 Z " fill="#E5F2F6" transform="translate(129,83)"/>
<path d="M0 0 C-1.010625 0.37125 -2.02125 0.7425 -3.0625 1.125 C-4.70840624 1.74980799 -6.35422636 2.37484282 -8 3 C-9.63775391 3.60328125 -9.63775391 3.60328125 -11.30859375 4.21875 C-25.7918445 9.73617886 -38.4847042 16.40421594 -49.47753906 27.47167969 C-51.13973554 29.14027333 -52.82977661 30.77743962 -54.5234375 32.4140625 C-55.70435735 33.56644681 -56.88407005 34.72006963 -58.0625 35.875 C-58.61123779 36.4102832 -59.15997559 36.94556641 -59.7253418 37.49707031 C-62.68681396 40.45437073 -65.01080137 43.26939219 -67 47 C-67.99 46.67 -68.98 46.34 -70 46 C-58.51027079 31.18507785 -22.42476241 -8.65421656 0 0 Z " fill="#23A9B2" transform="translate(115,37)"/>
<path d="M0 0 C1.51872407 3.03744813 1.01252036 6.17599174 0.9375 9.5 C0.84366885 17.72494434 1.46849404 25.43248722 5 33 C1.03986375 32.24118437 -1.02217057 30.77328478 -3.76513672 27.88085938 C-6.05924342 24.3866328 -5.74872628 20.80123827 -5.5625 16.75 C-5.56056641 15.9353125 -5.55863281 15.120625 -5.55664062 14.28125 C-5.50390625 11.921875 -5.50390625 11.921875 -5 8 C-4.01 7.34 -3.02 6.68 -2 6 C-0.78715124 2.94570927 -0.78715124 2.94570927 0 0 Z " fill="#364EA8" transform="translate(91,138)"/>
<path d="M0 0 C1.1845131 3.55353929 1.26641894 6.27013478 1 10 C-0.375 11.9375 -0.375 11.9375 -2 13 C-2.66 13 -3.32 13 -4 13 C-4 12.34 -4 11.68 -4 11 C-5.32 10.67 -6.64 10.34 -8 10 C-8.495 7.525 -8.495 7.525 -9 5 C-8.01 4.34 -7.02 3.68 -6 3 C-7.97536745 3.34786708 -7.97536745 3.34786708 -10 4 C-10.33 4.66 -10.66 5.32 -11 6 C-24.86 6 -38.72 6 -53 6 C-53 5.67 -53 5.34 -53 5 C-39.47 5 -25.94 5 -12 5 C-11.67 3.68 -11.34 2.36 -11 1 C-9.54182203 0.83197949 -8.0834516 0.66562857 -6.625 0.5 C-5.81289062 0.4071875 -5.00078125 0.314375 -4.1640625 0.21875 C-2 0 -2 0 0 0 Z " fill="#904BC0" transform="translate(165,213)"/>
<path d="M0 0 C0 15 0 30 0 45 C-0.66 45 -1.32 45 -2 45 C-4.09722578 36.75107281 -4.36640613 28.73215127 -4.375 20.25 C-4.39949219 18.96222656 -4.42398438 17.67445313 -4.44921875 16.34765625 C-4.48516006 4.78653445 -4.48516006 4.78653445 0 0 Z " fill="#153D83" transform="translate(50,124)"/>
<path d="M0 0 C3 0.375 3 0.375 4.875 1.5 C6.52854531 4.25590884 6.39365568 6.22575452 6 9.375 C4.875 11.25 4.875 11.25 3 12.375 C-0.1875 12.5625 -0.1875 12.5625 -3 12.375 C-2.34 11.715 -1.68 11.055 -1 10.375 C-1.66 9.715 -2.32 9.055 -3 8.375 C-3.625 6.25 -3.625 6.25 -4 4.375 C-4.33 4.705 -4.66 5.035 -5 5.375 C-8.02977804 5.46371273 -11.03667022 5.4901935 -14.06640625 5.47265625 C-14.97502914 5.4712413 -15.88365204 5.46982635 -16.81980896 5.46836853 C-19.73407221 5.46275193 -22.64825981 5.45019665 -25.5625 5.4375 C-27.53320202 5.43248714 -29.50390524 5.42792386 -31.47460938 5.42382812 C-36.31643559 5.41277711 -41.15820495 5.39550138 -46 5.375 C-46 5.045 -46 4.715 -46 4.375 C-44.8039917 4.36041748 -43.6079834 4.34583496 -42.37573242 4.33081055 C-37.94183325 4.27287414 -33.50844442 4.19564126 -29.07495117 4.11254883 C-27.15543902 4.0792775 -25.23582852 4.05125246 -23.31616211 4.02856445 C-20.55800428 3.99505879 -17.80074957 3.94274597 -15.04296875 3.88671875 C-14.18350143 3.88032883 -13.32403412 3.8739389 -12.43852234 3.86735535 C-11.63791885 3.84756119 -10.83731537 3.82776703 -10.01245117 3.80737305 C-8.95655037 3.79071846 -8.95655037 3.79071846 -7.87931824 3.77372742 C-4.38042649 3.03138158 -3.81800985 0.47725123 0 0 Z " fill="#CAEDEF" transform="translate(177,84.625)"/>
<path d="M0 0 C1.63984529 0.00031732 3.27971127 0.01165397 4.91943359 0.03173828 C6.21365738 0.03598312 6.21365738 0.03598312 7.5340271 0.04031372 C10.29544829 0.05152746 13.05654759 0.07663394 15.81787109 0.10205078 C17.68765808 0.11207905 19.55745015 0.12120517 21.42724609 0.12939453 C26.01591218 0.15147066 30.60433702 0.18600844 35.19287109 0.22705078 C35.19287109 0.88705078 35.19287109 1.54705078 35.19287109 2.22705078 C30.90287109 2.22705078 26.61287109 2.22705078 22.19287109 2.22705078 C22.19287109 2.88705078 22.19287109 3.54705078 22.19287109 4.22705078 C21.63937988 4.21657715 21.08588867 4.20610352 20.515625 4.1953125 C6.22859267 3.87868225 6.22859267 3.87868225 -7.80712891 6.22705078 C-5.04148247 0.30066556 -5.04148247 0.30066556 0 0 Z " fill="#25ABB6" transform="translate(135.80712890625,91.77294921875)"/>
<path d="M0 0 C1.98 0 3.96 0 6 0 C3 2 3 2 1 3 C1.495 5.475 1.495 5.475 2 8 C2.99 8.33 3.98 8.66 5 9 C5 9.66 5 10.32 5 11 C2.6875 11.25 2.6875 11.25 0 11 C-0.36391846 10.34741211 -0.72783691 9.69482422 -1.1027832 9.02246094 C-3.32731847 6.65107371 -3.88399085 6.66793482 -7.01245117 6.45410156 C-8.68891544 6.41281074 -10.36599778 6.39302229 -12.04296875 6.390625 C-13.36836418 6.36582062 -13.36836418 6.36582062 -14.72053528 6.34051514 C-17.54292678 6.29192715 -20.36477912 6.27064059 -23.1875 6.25 C-25.10093874 6.2218493 -27.01435225 6.19192314 -28.92773438 6.16015625 C-33.61844521 6.08616545 -38.30885483 6.03665698 -43 6 C-43.33 5.34 -43.66 4.68 -44 4 C-30.14 4 -16.28 4 -2 4 C-1.34 2.68 -0.68 1.36 0 0 Z " fill="#F9F6FB" transform="translate(156,215)"/>
<path d="M0 0 C2.6015625 -0.29296875 2.6015625 -0.29296875 5.625 -0.1875 C7.12933594 -0.14689453 7.12933594 -0.14689453 8.6640625 -0.10546875 C9.43492188 -0.07066406 10.20578125 -0.03585938 11 0 C11.18991128 3.0446094 11.32801567 6.07731366 11.4375 9.125 C11.49615234 9.9809375 11.55480469 10.836875 11.61523438 11.71875 C11.78394591 17.98517828 11.78394591 17.98517828 9.51611328 20.92089844 C6.75256092 23.35363882 4.51142785 24.82952405 1 26 C2.69150052 22.22665268 2.69150052 22.22665268 4.53125 20.875 C6.87189269 17.8869455 6.57584169 14.46532198 6.6875 10.8125 C6.72166016 10.06291016 6.75582031 9.31332031 6.79101562 8.54101562 C6.87334294 6.69453162 6.93835281 4.84729006 7 3 C4.03 3 1.06 3 -2 3 C-1.34 2.01 -0.68 1.02 0 0 Z " fill="#D4E1ED" transform="translate(73,104)"/>
<path d="M0 0 C-2.40063686 2.70270375 -4.91523897 4.12225794 -8.125 5.75 C-14.37512769 9.06960424 -19.63218306 13.21789035 -25.06640625 17.70703125 C-27 19 -27 19 -30 19 C-29.3125 16.5625 -29.3125 16.5625 -28 14 C-25.375 13.1875 -25.375 13.1875 -23 13 C-23 12.34 -23 11.68 -23 11 C-21.69417053 9.96434215 -20.35622245 8.96873032 -19 8 C-17.98198643 7.01834406 -16.9753197 6.02408568 -16 5 C-16 5.66 -16 6.32 -16 7 C-15.3503125 6.2575 -15.3503125 6.2575 -14.6875 5.5 C-13 4 -13 4 -10 4 C-9.896875 3.360625 -9.79375 2.72125 -9.6875 2.0625 C-9.460625 1.381875 -9.23375 0.70125 -9 0 C-5.52176885 -1.15941038 -3.54104422 -0.70820884 0 0 Z " fill="#136488" transform="translate(105,61)"/>
<path d="M0 0 C6.75 0.75 6.75 0.75 9 3 C9.33015665 6.10347254 9.50531294 8.15781176 7.875 10.875 C5.21965017 12.4682099 3.03210482 12.20214032 0 12 C-0.66 10.68 -1.32 9.36 -2 8 C-1.34 8 -0.68 8 0 8 C0 5.36 0 2.72 0 0 Z " fill="#F7EFF9" transform="translate(161,199)"/>
<path d="M0 0 C5.75 0.75 5.75 0.75 8 3 C8.25 6.5 8.25 6.5 8 10 C6 12 6 12 2.375 12.125 C1.26125 12.08375 0.1475 12.0425 -1 12 C-1 7.8725485 -0.54466387 4.084979 0 0 Z " fill="#E0F7F5" transform="translate(157,69)"/>
<path d="M0 0 C0.74507813 0.80824219 1.49015625 1.61648437 2.2578125 2.44921875 C6.85296109 6.27850924 12.14875133 5.78076586 17.875 5.8125 C19.47988281 5.85020508 19.47988281 5.85020508 21.1171875 5.88867188 C23.74516165 5.94733201 26.37147825 5.9837667 29 6 C29 6.66 29 7.32 29 8 C23.72 8 18.44 8 13 8 C13 8.66 13 9.32 13 10 C7.22621075 9.5188509 3.04140164 7.81532819 -2 5 C-1.125 1.125 -1.125 1.125 0 0 Z " fill="#5D24A1" transform="translate(104,216)"/>
<path d="M0 0 C0.66 0.33 1.32 0.66 2 1 C-8.80700065 12.45326647 -19.98435904 21.66415388 -34 29 C-35.4540625 29.8971875 -35.4540625 29.8971875 -36.9375 30.8125 C-39 32 -39 32 -41 32 C-41 31.34 -41 30.68 -41 30 C-40.02160156 29.50371094 -39.04320312 29.00742188 -38.03515625 28.49609375 C-31.22791108 24.98904137 -24.84477328 21.49961469 -18.921875 16.58984375 C-17.08921035 15.07379799 -15.21036648 13.71961034 -13.25 12.375 C-10.16670304 10.20106251 -7.60300211 7.74000222 -5 5 C-3.33333333 3.33333333 -1.66666667 1.66666667 0 0 Z " fill="#A421C0" transform="translate(230,221)"/>
<path d="M0 0 C1.1034375 0.31710938 2.206875 0.63421875 3.34375 0.9609375 C8.37648112 2.21912028 13.33263483 2.44474308 18.5 2.625 C19.87671875 2.68300781 19.87671875 2.68300781 21.28125 2.7421875 C23.52064528 2.83549564 25.76005254 2.92128185 28 3 C28 3.66 28 4.32 28 5 C28.99 5.33 29.98 5.66 31 6 C26.77135555 6.17449702 22.54363749 6.28092495 18.3125 6.375 C16.51522461 6.45041016 16.51522461 6.45041016 14.68164062 6.52734375 C5.96232198 6.67307052 5.96232198 6.67307052 3.05224609 4.63769531 C1.66796875 2.9765625 1.66796875 2.9765625 0 0 Z " fill="#7114AA" transform="translate(126,197)"/>
<path d="M0 0 C-1.45699098 1.79275845 -2.91563655 3.58417229 -4.375 5.375 C-5.18710938 6.37273437 -5.99921875 7.37046875 -6.8359375 8.3984375 C-9 11 -9 11 -11 13 C-12.66614608 13.04165365 -14.33385392 13.04165365 -16 13 C-16.99 13.495 -16.99 13.495 -18 14 C-13.98181818 3.49090909 -13.98181818 3.49090909 -11 2 C-11.33 3.32 -11.66 4.64 -12 6 C-9.96166576 4.7260411 -7.96147874 3.38938077 -6 2 C-6 1.34 -6 0.68 -6 0 C-3.50907189 -1.24546405 -2.58919267 -0.7767578 0 0 Z " fill="#10528A" transform="translate(76,82)"/>
<path d="M0 0 C1.8125 1.125 1.8125 1.125 3 3 C3.1875 6.1875 3.1875 6.1875 3 9 C1 10 1 10 -2 9.25 C-5 8 -5 8 -7 5 C-7.66 5.99 -8.32 6.98 -9 8 C-8.6875 5.125 -8.6875 5.125 -8 2 C-4.76746204 -0.15502531 -3.74849077 -0.46856135 0 0 Z " fill="#E0E7F3" transform="translate(87,135)"/>
<path d="M0 0 C0.66 0 1.32 0 2 0 C2.103125 0.639375 2.20625 1.27875 2.3125 1.9375 C2.539375 2.618125 2.76625 3.29875 3 4 C3.99 4.33 4.98 4.66 6 5 C6 6.65 6 8.3 6 10 C6.99 10.33 7.98 10.66 9 11 C9 13.31 9 15.62 9 18 C9.99 18.33 10.98 18.66 12 19 C11.67 19.66 11.34 20.32 11 21 C11.99 21.33 12.98 21.66 14 22 C15.1875 25.0625 15.1875 25.0625 16 28 C11.88450431 26.6281681 11.253865 24.56793372 9.0625 20.875 C8.70986084 20.28187012 8.35722168 19.68874023 7.99389648 19.07763672 C6.99141623 17.38776129 5.99551801 15.69398629 5 14 C4.54625 13.28328125 4.0925 12.5665625 3.625 11.828125 C1.1273854 7.82459572 0.37696169 4.61778074 0 0 Z " fill="#2B2A9B" transform="translate(34,188)"/>
<path d="M0 0 C0.66 0.33 1.32 0.66 2 1 C1.67 3.31 1.34 5.62 1 8 C0.01 8.33 -0.98 8.66 -2 9 C-2 8.01 -2 7.02 -2 6 C-12.23 6 -22.46 6 -33 6 C-32.67 5.34 -32.34 4.68 -32 4 C-22.1 4 -12.2 4 -2 4 C-1.34 2.68 -0.68 1.36 0 0 Z " fill="#FAFDFD" transform="translate(156,70)"/>
<path d="M0 0 C1.4375 1.79296875 1.4375 1.79296875 3 4.1875 C3.7734375 5.35345703 3.7734375 5.35345703 4.5625 6.54296875 C5.98240427 8.9699247 7.02689971 11.36607951 8 14 C6.68 13.34 5.36 12.68 4 12 C3.67 12.99 3.34 13.98 3 15 C-0.3014019 12.19380839 -2.05669683 8.81959588 -4 5 C-4 3.68 -4 2.36 -4 1 C-2 0 -2 0 0 0 Z " fill="#231F7A" transform="translate(61,193)"/>
<path d="M0 0 C-0.33 0.99 -0.66 1.98 -1 3 C-5.455 3.495 -5.455 3.495 -10 4 C-10.33 5.32 -10.66 6.64 -11 8 C-19.58 8 -28.16 8 -37 8 C-37 7.67 -37 7.34 -37 7 C-29.74 6.67 -22.48 6.34 -15 6 C-15 5.34 -15 4.68 -15 4 C-15.99 3.67 -16.98 3.34 -18 3 C-17.24074219 2.79503906 -16.48148438 2.59007812 -15.69921875 2.37890625 C-14.70535156 2.10949219 -13.71148437 1.84007812 -12.6875 1.5625 C-11.70136719 1.29566406 -10.71523437 1.02882812 -9.69921875 0.75390625 C-3.31575829 -1.02902844 -3.31575829 -1.02902844 0 0 Z " fill="#A75EC9" transform="translate(169,196)"/>
<path d="M0 0 C0.66 0.33 1.32 0.66 2 1 C1.06933716 1.91495239 1.06933716 1.91495239 0.11987305 2.84838867 C-2.19329027 5.12734065 -4.50182158 7.41085936 -6.80737305 9.69750977 C-7.80360433 10.68372218 -8.80162829 11.66812729 -9.80151367 12.65063477 C-11.24359733 14.06828851 -12.67897564 15.49245115 -14.11328125 16.91796875 C-14.97735596 17.77156982 -15.84143066 18.6251709 -16.73168945 19.50463867 C-18.8921073 21.88130758 -20.46214139 24.19049292 -22 27 C-22.99 26.67 -23.98 26.34 -25 26 C-20.04203079 19.60716631 -14.84454576 13.65062201 -9.125 7.9375 C-8.56594971 7.37780518 -8.00689941 6.81811035 -7.4309082 6.24145508 C-5.0502601 3.89256339 -2.79083429 1.8605562 0 0 Z " fill="#1E7DAC" transform="translate(70,57)"/>
<path d="M0 0 C0.79075928 0.00523682 1.58151855 0.01047363 2.39624023 0.01586914 C3.67724609 0.02070313 3.67724609 0.02070313 4.98413086 0.02563477 C5.88196289 0.03401367 6.77979492 0.04239258 7.70483398 0.05102539 C8.6065332 0.05553711 9.50823242 0.06004883 10.43725586 0.06469727 C12.67234712 0.07652315 14.90730835 0.09300319 17.14233398 0.11352539 C10.31141325 4.66747255 0.55446563 3.23254062 -7.35766602 3.17602539 C-9.16364258 3.16925781 -9.16364258 3.16925781 -11.00610352 3.16235352 C-13.95667675 3.15064489 -16.90714461 3.13424534 -19.85766602 3.11352539 C-19.52766602 2.45352539 -19.19766602 1.79352539 -18.85766602 1.11352539 C-17.71426758 1.12512695 -16.57086914 1.13672852 -15.39282227 1.14868164 C-13.90193847 1.15805827 -12.41105293 1.1671586 -10.92016602 1.17602539 C-10.16541992 1.1844043 -9.41067383 1.1927832 -8.63305664 1.20141602 C-6.70772288 1.2100498 -4.78231021 1.16576872 -2.85766602 1.11352539 C-1.85766602 0.11352539 -1.85766602 0.11352539 0 0 Z " fill="#953CBF" transform="translate(147.857666015625,259.886474609375)"/>
<path d="M0 0 C0.99 0.66 1.98 1.32 3 2 C3.1875 5.625 3.1875 5.625 3 9 C1.02 9.99 1.02 9.99 -1 11 C-1 10.34 -1 9.68 -1 9 C-2.32 8.67 -3.64 8.34 -5 8 C-5.33 6.35 -5.66 4.7 -6 3 C-4.02 2.01 -2.04 1.02 0 0 Z " fill="#EEDFF3" transform="translate(162,215)"/>
<path d="M0 0 C4.875 1.875 4.875 1.875 6 3 C6.04063832 4.66617115 6.042721 6.33388095 6 8 C5.01 8.495 5.01 8.495 4 9 C4.33 9.66 4.66 10.32 5 11 C0.55063291 11.36075949 0.55063291 11.36075949 -1.8125 9.8125 C-3.42525784 7.35092224 -3.4334014 5.88934264 -3 3 C-1.5 1.1875 -1.5 1.1875 0 0 Z " fill="#EEF2F9" transform="translate(67,142)"/>
<path d="M0 0 C0 0.33 0 0.66 0 1 C-0.73863281 0.95617187 -1.47726563 0.91234375 -2.23828125 0.8671875 C-10.60241434 0.88844324 -15.08289589 3.32834545 -20.96875 9.22265625 C-23.51169324 12.6996421 -24.00449076 14.87537633 -23.484375 19.08984375 C-23.06408959 20.74725958 -22.54070945 22.37787166 -22 24 C-22.33 24.66 -22.66 25.32 -23 26 C-23.66 26 -24.32 26 -25 26 C-25.9055123 19.2223776 -26.47507669 13.59684161 -23.04296875 7.5546875 C-16.54528164 -0.36304051 -9.81270396 -1.41818641 0 0 Z " fill="#1C88A9" transform="translate(128,87)"/>
<path d="M0 0 C0.66 0 1.32 0 2 0 C2.71961582 8.68679101 3.14368684 17.28299826 3 26 C2.34 26 1.68 26 1 26 C-0.30475618 23.39048764 -0.11301572 21.47298715 -0.09765625 18.5546875 C-0.09443359 17.47832031 -0.09121094 16.40195313 -0.08789062 15.29296875 C-0.07951172 14.16503906 -0.07113281 13.03710938 -0.0625 11.875 C-0.05798828 10.73933594 -0.05347656 9.60367188 -0.04882812 8.43359375 C-0.03701615 5.62234362 -0.02054507 2.8111977 0 0 Z " fill="#273D82" transform="translate(47,143)"/>
<path d="M0 0 C3 1.875 3 1.875 5 4 C5 4.66 5 5.32 5 6 C4.34 6 3.68 6 3 6 C3 5.34 3 4.68 3 4 C-0.7054899 2.7648367 -4.1541025 2.30571019 -8 3 C-10.36953047 5.12827495 -10.36953047 5.12827495 -12 8 C-13.28667172 9.70294787 -14.61096733 11.37946188 -16 13 C-16.66 13 -17.32 13 -18 13 C-14.39762398 4.81278178 -9.76165389 -1.59528974 0 0 Z " fill="#D42BD2" transform="translate(236,195)"/>
<path d="M0 0 C0.66 0.33 1.32 0.66 2 1 C0.7934375 2.11375 0.7934375 2.11375 -0.4375 3.25 C-3.09827675 5.61282931 -3.09827675 5.61282931 -3.34375 7.84375 C-4.3511643 11.15382557 -6.59738618 12.87849809 -9.0625 15.25 C-9.98160156 16.14203125 -10.90070313 17.0340625 -11.84765625 17.953125 C-12.55792969 18.62859375 -13.26820313 19.3040625 -14 20 C-14.33 19.34 -14.66 18.68 -15 18 C-14.401875 17.278125 -13.80375 16.55625 -13.1875 15.8125 C-10.96972492 13.10021288 -10.96972492 13.10021288 -9.4375 10.25 C-8 8 -8 8 -5 7 C-4.29848848 5.6846659 -3.63474075 4.34882408 -3 3 C-1.375 1.25 -1.375 1.25 0 0 Z " fill="#B419BD" transform="translate(224,214)"/>
<path d="M0 0 C0.391875 0.639375 0.78375 1.27875 1.1875 1.9375 C3.38472296 4.43778819 4.75791433 4.64950425 8 5 C8 5.66 8 6.32 8 7 C7.01 7.495 7.01 7.495 6 8 C5.68758545 10.71446979 5.48663408 13.33909361 5.375 16.0625 C5.33632812 16.82111328 5.29765625 17.57972656 5.2578125 18.36132812 C5.16326438 20.24047195 5.08053244 22.12020336 5 24 C4.67 24 4.34 24 4 24 C3.83564453 22.30230469 3.83564453 22.30230469 3.66796875 20.5703125 C3.50852939 19.08846436 3.34833382 17.60669744 3.1875 16.125 C3.11724609 15.37863281 3.04699219 14.63226563 2.97460938 13.86328125 C2.75289777 11.89448223 2.38420661 9.94363342 2 8 C1.01 7.34 0.02 6.68 -1 6 C-1.25 3.4375 -1.25 3.4375 -1 1 C-0.67 0.67 -0.34 0.34 0 0 Z " fill="#F5F6FA" transform="translate(80,139)"/>
<path d="M0 0 C0.33 0.99 0.66 1.98 1 3 C3.97 2.34 6.94 1.68 10 1 C9 3 9 3 6.234375 4.0703125 C4.50960937 4.59238281 4.50960937 4.59238281 2.75 5.125 C1.61046875 5.47820312 0.4709375 5.83140625 -0.703125 6.1953125 C-3.6411939 6.9124241 -5.99990761 7.16917814 -9 7 C-8.67 5.68 -8.34 4.36 -8 3 C-6.865625 2.690625 -5.73125 2.38125 -4.5625 2.0625 C-1.21224901 1.37075469 -1.21224901 1.37075469 0 0 Z " fill="#8527B2" transform="translate(165,223)"/>
<path d="M0 0 C2.27864583 0.06510417 4.55729167 0.13020833 6.8359375 0.1953125 C6.8359375 5.1453125 6.8359375 10.0953125 6.8359375 15.1953125 C6.5059375 15.1953125 6.1759375 15.1953125 5.8359375 15.1953125 C5.8359375 10.9053125 5.8359375 6.6153125 5.8359375 2.1953125 C2.43513173 2.29939167 2.43513173 2.29939167 -1.1640625 3.1953125 C-3.00840599 5.65646797 -3.00840599 5.65646797 -4.1640625 8.1953125 C-4.8240625 8.1953125 -5.4840625 8.1953125 -6.1640625 8.1953125 C-3.77348794 0.3405675 -3.77348794 0.3405675 0 0 Z " fill="#1D5A9F" transform="translate(73.1640625,106.8046875)"/>
<path d="M0 0 C-2.48740182 2.78992366 -5.24218857 4.44594313 -8.5 6.25 C-9.93859375 7.06210938 -9.93859375 7.06210938 -11.40625 7.890625 C-14 9 -14 9 -17 8 C-15.1875 6 -15.1875 6 -13 4 C-12.01 4 -11.02 4 -10 4 C-9.8453125 3.0409375 -9.8453125 3.0409375 -9.6875 2.0625 C-9.460625 1.381875 -9.23375 0.70125 -9 0 C-5.52176885 -1.15941038 -3.54104422 -0.70820884 0 0 Z " fill="#147D9A" transform="translate(105,61)"/>
<path d="M0 0 C0.99 0.66 1.98 1.32 3 2 C3.1875 4.625 3.1875 4.625 3 7 C2.01 7.495 2.01 7.495 1 8 C0.67 6.68 0.34 5.36 0 4 C-3.68754757 4.49831724 -5.60490662 5.10067643 -8 8 C-8.36075949 3.55063291 -8.36075949 3.55063291 -6.8125 1.1875 C-4.37235669 -0.41121458 -2.86722793 -0.35840349 0 0 Z " fill="#E5E7F3" transform="translate(75,165)"/>
<path d="M0 0 C-1.47721422 3.45201639 -3.43794001 5.64961936 -6.125 8.25 C-6.84945312 8.95640625 -7.57390625 9.6628125 -8.3203125 10.390625 C-8.87460938 10.92171875 -9.42890625 11.4528125 -10 12 C-10.66 11.67 -11.32 11.34 -12 11 C-9.45174035 6.18662066 -5.86485765 0 0 0 Z " fill="#A817B8" transform="translate(213,224)"/>
<path d="M0 0 C5.77807024 -0.2358396 10.51324804 0.13216954 16 2 C15.67 3.65 15.34 5.3 15 7 C9.64197374 5.03539037 4.76418387 3.17612258 0 0 Z " fill="#24C0B9" transform="translate(150,65)"/>
<path d="M0 0 C3.73678306 4.71159603 4.11284843 8.01903338 4 14 C3.34 14 2.68 14 2 14 C-1.52529183 5.33365759 -1.52529183 5.33365759 -1 1 C-0.67 0.67 -0.34 0.34 0 0 Z " fill="#20287E" transform="translate(50,170)"/>
<path d="M0 0 C0.33 0 0.66 0 1 0 C1.53669649 4.21690097 1.76351996 6.72336179 -0.453125 10.4296875 C-3.10683711 13.83045302 -5.91246595 16.98846679 -9 20 C-8.37857942 16.60136646 -7.0816774 14.46695446 -5.0625 11.6875 C-2.38437054 7.80838682 -0.97702128 4.592 0 0 Z " fill="#C823CF" transform="translate(241,201)"/>
<path d="M0 0 C0.99 0.33 1.98 0.66 3 1 C4.8380113 5.04362487 5.25455926 7.73449853 4 12 C2 10.5 2 10.5 0 8 C-0.35800135 5.24128373 -0.18660165 2.79902476 0 0 Z " fill="#2E3694" transform="translate(30,175)"/>
<path d="M0 0 C1.65 0 3.3 0 5 0 C5 0.33 5 0.66 5 1 C12.59 1.33 20.18 1.66 28 2 C28 2.33 28 2.66 28 3 C18.43 3 8.86 3 -1 3 C-0.67 2.01 -0.34 1.02 0 0 Z " fill="#038CA1" transform="translate(114,70)"/>
<path d="M0 0 C1.43836751 0.11458693 2.87570966 0.24209116 4.3125 0.375 C5.51326172 0.47941406 5.51326172 0.47941406 6.73828125 0.5859375 C9 1 9 1 12 3 C4.74 3 -2.52 3 -10 3 C-10 2.67 -10 2.34 -10 2 C-6.7 2 -3.4 2 0 2 C0 1.34 0 0.68 0 0 Z " fill="#12C7B4" transform="translate(158,34)"/>
<path d="M0 0 C2.64 1.98 5.28 3.96 8 6 C6.02 6.99 6.02 6.99 4 8 C0.75 6.625 0.75 6.625 -2 5 C-1.125 1.125 -1.125 1.125 0 0 Z " fill="#48219B" transform="translate(104,216)"/>
<path d="M0 0 C0.99 0.33 1.98 0.66 3 1 C2.34 4.63 1.68 8.26 1 12 C0.34 10.68 -0.32 9.36 -1 8 C-1.33 8.33 -1.66 8.66 -2 9 C-3.10102197 5.69693408 -2.95067299 4.28414305 -2 1 C-1.34 0.67 -0.68 0.34 0 0 Z " fill="#1E4D8A" transform="translate(50,119)"/>
<path d="M0 0 C1.67542976 0.28604898 3.34385343 0.61781233 5 1 C5 2.65 5 4.3 5 6 C3.35 6 1.7 6 0 6 C-0.38218767 4.34385343 -0.71395102 2.67542976 -1 1 C-0.67 0.67 -0.34 0.34 0 0 Z " fill="#8A31B8" transform="translate(157,217)"/>
<path d="M0 0 C0.99 0.33 1.98 0.66 3 1 C3 3.31 3 5.62 3 8 C1.02 8.99 1.02 8.99 -1 10 C-1.99 9.01 -2.98 8.02 -4 7 C-2.68 7 -1.36 7 0 7 C0 4.69 0 2.38 0 0 Z " fill="#DDE2F0" transform="translate(73,143)"/>
<path d="M0 0 C1.65 0.33 3.3 0.66 5 1 C4.67 2.65 4.34 4.3 4 6 C2.35 5.67 0.7 5.34 -1 5 C-0.67 3.35 -0.34 1.7 0 0 Z " fill="#953DC1" transform="translate(162,202)"/>
<path d="M0 0 C6.75 0.75 6.75 0.75 9 3 C9.125 6.125 9.125 6.125 9 9 C6 7 6 7 5 4 C4.34 3.835 3.68 3.67 3 3.5 C2.34 3.335 1.68 3.17 1 3 C0.67 2.01 0.34 1.02 0 0 Z " fill="#F1E5F6" transform="translate(161,199)"/>
<path d="M0 0 C1.65 0.33 3.3 0.66 5 1 C4.67 2.65 4.34 4.3 4 6 C2.35 5.67 0.7 5.34 -1 5 C-0.67 3.35 -0.34 1.7 0 0 Z " fill="#23BAB5" transform="translate(175,88)"/>
<path d="M0 0 C1.67542976 0.28604898 3.34385343 0.61781233 5 1 C5 2.32 5 3.64 5 5 C3.35 5.33 1.7 5.66 0 6 C-0.38218767 4.34385343 -0.71395102 2.67542976 -1 1 C-0.67 0.67 -0.34 0.34 0 0 Z " fill="#373BA5" transform="translate(71,168)"/>
<path d="M0 0 C2.125 0.375 2.125 0.375 4 1 C4 2.65 4 4.3 4 6 C2.35 6 0.7 6 -1 6 C-1.625 4.125 -1.625 4.125 -2 2 C-1.34 1.34 -0.68 0.68 0 0 Z " fill="#2BBDB9" transform="translate(158,72)"/>
<path d="M0 0 C0.66 0.33 1.32 0.66 2 1 C-2.29 5.29 -6.58 9.58 -11 14 C-11.66 13.34 -12.32 12.68 -13 12 C-12.31292969 11.38511719 -11.62585938 10.77023438 -10.91796875 10.13671875 C-10.01691406 9.32847656 -9.11585938 8.52023438 -8.1875 7.6875 C-7.29417969 6.88699219 -6.40085938 6.08648437 -5.48046875 5.26171875 C-3.60073214 3.54775419 -1.77407253 1.82122396 0 0 Z " fill="#BD2ACC" transform="translate(230,221)"/>
<path d="M0 0 C5.28 0 10.56 0 16 0 C16 0.66 16 1.32 16 2 C16.99 2.33 17.98 2.66 19 3 C16.66705225 3.04241723 14.33297433 3.04092937 12 3 C11.67 2.67 11.34 2.34 11 2 C9.15108054 1.76636119 7.29511969 1.58696365 5.4375 1.4375 C4.42558594 1.35371094 3.41367188 1.26992187 2.37109375 1.18359375 C1.19740234 1.09271484 1.19740234 1.09271484 0 1 C0 0.67 0 0.34 0 0 Z " fill="#8022B5" transform="translate(138,200)"/>
<path d="M0 0 C2.475 0.495 2.475 0.495 5 1 C4.67 2.65 4.34 4.3 4 6 C2.68 5.67 1.36 5.34 0 5 C0 3.35 0 1.7 0 0 Z " fill="#2E55A9" transform="translate(82,138)"/>
<path d="M0 0 C-0.33 0.66 -0.66 1.32 -1 2 C-1.99 2.33 -2.98 2.66 -4 3 C-5.20882096 5.00016466 -5.20882096 5.00016466 -6 7 C-6.33 6.34 -6.66 5.68 -7 5 C-7.66 5.99 -8.32 6.98 -9 8 C-8.6875 5.125 -8.6875 5.125 -8 2 C-4.77208445 -0.1519437 -3.71599191 -0.20086443 0 0 Z " fill="#C8D4E7" transform="translate(87,135)"/>
<path d="M0 0 C0.33 0 0.66 0 1 0 C1 2.64 1 5.28 1 8 C1.66 8.33 2.32 8.66 3 9 C2.34 9.66 1.68 10.32 1 11 C-0.32 10.34 -1.64 9.68 -3 9 C-2.67 8.67 -2.34 8.34 -2 8 C-1.835 6.845 -1.67 5.69 -1.5 4.5 C-1 1 -1 1 0 0 Z " fill="#F1F3F8" transform="translate(71,134)"/>
<path d="M0 0 C0.99 0.33 1.98 0.66 3 1 C1.88266271 2.50571657 0.75589965 4.00444292 -0.375 5.5 C-1.00148437 6.3353125 -1.62796875 7.170625 -2.2734375 8.03125 C-2.84320313 8.6809375 -3.41296875 9.330625 -4 10 C-4.66 10 -5.32 10 -6 10 C-4.34832443 6.4213696 -2.21713508 3.25179812 0 0 Z " fill="#C423C2" transform="translate(224,198)"/>
<path d="M0 0 C1.65 0 3.3 0 5 0 C5 1.65 5 3.3 5 5 C3.35 5 1.7 5 0 5 C0 3.35 0 1.7 0 0 Z " fill="#223E98" transform="translate(68,145)"/>
<path d="M0 0 C-1.65 1.98 -3.3 3.96 -5 6 C-5.66 5.67 -6.32 5.34 -7 5 C-6.625 2.5625 -6.625 2.5625 -6 0 C-3.50907189 -1.24546405 -2.58919267 -0.7767578 0 0 Z " fill="#175D8B" transform="translate(76,82)"/>
<path d="M0 0 C0.66 0.33 1.32 0.66 2 1 C0.87895467 2.31587941 -0.24696965 3.62760353 -1.375 4.9375 C-2.00148437 5.66839844 -2.62796875 6.39929688 -3.2734375 7.15234375 C-5 9 -5 9 -7 10 C-5.6062718 5.56541027 -3.39417765 3.12621626 0 0 Z " fill="#A232C0" transform="translate(189,176)"/>
<path d="M0 0 C0.33 0 0.66 0 1 0 C1.78774617 8.03501094 1.78774617 8.03501094 -1.5 12.0625 C-2.325 12.701875 -3.15 13.34125 -4 14 C-3.53998088 11.85324409 -3.03717273 10.06969887 -2 8.125 C-0.74669887 5.4617351 -0.39583319 2.90277671 0 0 Z " fill="#BF3FCF" transform="translate(215,184)"/>
<path d="M0 0 C0.33 0 0.66 0 1 0 C1 2.97 1 5.94 1 9 C1.66 9 2.32 9 3 9 C3 10.65 3 12.3 3 14 C2.34 14 1.68 14 1 14 C-0.38226016 11.23547967 -0.09525387 8.9538637 -0.0625 5.875 C-0.05347656 4.77929688 -0.04445312 3.68359375 -0.03515625 2.5546875 C-0.02355469 1.71164063 -0.01195312 0.86859375 0 0 Z " fill="#182B7B" transform="translate(47,155)"/>
<path d="M0 0 C0.99 0 1.98 0 3 0 C3 0.66 3 1.32 3 2 C4.32 2.33 5.64 2.66 7 3 C3.7 3.66 0.4 4.32 -3 5 C-1 1 -1 1 0 0 Z " fill="#2DACB7" transform="translate(131,93)"/>
<path d="M0 0 C2.475 0.99 2.475 0.99 5 2 C3.68 2.33 2.36 2.66 1 3 C0.67 4.32 0.34 5.64 0 7 C-0.33 6.01 -0.66 5.02 -1 4 C-1.66 5.32 -2.32 6.64 -3 8 C-3.36923077 3.44615385 -3.36923077 3.44615385 -1.5 1.1875 C-1.005 0.795625 -0.51 0.40375 0 0 Z " fill="#B7C1DD" transform="translate(67,142)"/>
<path d="M0 0 C2.97 0 5.94 0 9 0 C8.34 1.32 7.68 2.64 7 4 C5.68 3.67 4.36 3.34 3 3 C3 2.34 3 1.68 3 1 C2.01 0.67 1.02 0.34 0 0 Z " fill="#912CBF" transform="translate(151,199)"/>
<path d="M0 0 C0.33 0 0.66 0 1 0 C1.39253254 4.44870215 0.15305957 7.14243493 -2 11 C-2.66 10.67 -3.32 10.34 -4 10 C-2.8905928 6.51329166 -1.73662334 3.22515763 0 0 Z " fill="#3278AD" transform="translate(40,91)"/>
<path d="M0 0 C2.31 0.33 4.62 0.66 7 1 C7 2.65 7 4.3 7 6 C6.01 6.495 6.01 6.495 5 7 C4.731875 6.21625 4.46375 5.4325 4.1875 4.625 C3.15185568 1.71885077 3.15185568 1.71885077 0 0 Z " fill="#F4F5F9" transform="translate(71,166)"/>
<path d="M0 0 C3.96 0 7.92 0 12 0 C12 0.33 12 0.66 12 1 C8.7 1 5.4 1 2 1 C2 1.66 2 2.32 2 3 C1.01 3 0.02 3 -1 3 C-0.67 2.01 -0.34 1.02 0 0 Z " fill="#4D1395" transform="translate(115,223)"/>
<path d="M0 0 C0.33 0 0.66 0 1 0 C1 2.64 1 5.28 1 8 C0.01 8.33 -0.98 8.66 -2 9 C-1.125 1.125 -1.125 1.125 0 0 Z " fill="#D342CF" transform="translate(241,201)"/>
<path d="M0 0 C0.763125 0.20625 1.52625 0.4125 2.3125 0.625 C1.3225 2.11 1.3225 2.11 0.3125 3.625 C-2.1875 3.75 -2.1875 3.75 -4.6875 3.625 C-5.6775 4.12 -5.6775 4.12 -6.6875 4.625 C-5.39900677 0.7595203 -4.17039106 -0.58191503 0 0 Z " fill="#14537B" transform="translate(64.6875,91.375)"/>
<path d="M0 0 C2.64 0.66 5.28 1.32 8 2 C7.01 2.495 7.01 2.495 6 3 C5.67 3.99 5.34 4.98 5 6 C3.35 4.02 1.7 2.04 0 0 Z " fill="#8548B6" transform="translate(126,197)"/>
<path d="M0 0 C2.625 -0.1875 2.625 -0.1875 5 0 C4.67 0.99 4.34 1.98 4 3 C2.02 3 0.04 3 -2 3 C-1.34 2.01 -0.68 1.02 0 0 Z " fill="#144D73" transform="translate(58,98)"/>
<path d="M0 0 C1.98 0 3.96 0 6 0 C4 3 4 3 0.875 3.6875 C-0.07375 3.790625 -1.0225 3.89375 -2 4 C-1.34 2.68 -0.68 1.36 0 0 Z " fill="#DBF4F5" transform="translate(174,85)"/>
<path d="M0 0 C0.66 0.33 1.32 0.66 2 1 C-1.465 3.97 -1.465 3.97 -5 7 C-5.66 6.67 -6.32 6.34 -7 6 C-4.69 4.02 -2.38 2.04 0 0 Z " fill="#178AA9" transform="translate(70,57)"/>
</svg>
